HIERARCHY
ROOT ui
{
	 OFFSET 0 0 0
	 CHANNELS 3 XPosition YPosition Z Position
	 EndSite
	 {
	 OFFSET 0 -1 0
	 }
}
ROOT li
{
	 OFFSET 0 0 0
	 CHANNELS 3 XPosition YPosition Z Position
	 EndSite
	 {
	 OFFSET 0 -1 0
	 }
}
ROOT ul
{
	 OFFSET 0 0 0
	 CHANNELS 3 XPosition YPosition Z Position
	 EndSite
	 {
	 OFFSET 0 -1 0
	 }
}
ROOT ll
{
	 OFFSET 0 0 0
	 CHANNELS 3 XPosition YPosition Z Position
	 EndSite
	 {
	 OFFSET 0 -1 0
	 }
}
ROOT tt
{
	 OFFSET 0 0 0
	 CHANNELS 3 XPosition YPosition Z Position
	 EndSite
	 {
	 OFFSET 0 -1 0
	 }
}
ROOT tb
{
	 OFFSET 0 0 0
	 CHANNELS 3 XPosition YPosition Z Position
	 EndSite
	 {
	 OFFSET 0 -1 0
	 }
}
ROOT td
{
	 OFFSET 0 0 0
	 CHANNELS 3 XPosition YPosition Z Position
	 EndSite
	 {
	 OFFSET 0 -1 0
	 }
}
ROOT v
{
	 OFFSET 0 0 0
	 CHANNELS 3 XPosition YPosition Z Position
	 EndSite
	 {
	 OFFSET 0 -1 0
	 }
}
ROOT bn
{
	 OFFSET 0 0 0
	 CHANNELS 3 XPosition YPosition Z Position
	 EndSite
	 {
	 OFFSET 0 -1 0
	 }
}
MOTION
Frames: 27
Frame Time: 0.002
-0.0111889705657959	0.0032004868984222413	0		0.5302552490234375	-2.541851806640625	0		-0.962968505859375	0.23391615295410156	0		-0.575643798828125	-3.0829990234375	0		1.7807781982421875	-1.054687255859375	0		3.330810791015625	-0.15989263916015625	0		4.6477822265625	-0.1018318862915039	0		5.9542001953125	0.40442706298828124	0		-0.014183404922485352	5.9818623046875	0		
-0.008797856330871582	-0.005204154968261719	0		0.5018269348144532	-2.541798828125	0		-0.9733375854492188	0.242673095703125	0		-0.5031267395019531	-3.088423095703125	0		1.832118408203125	-1.0687510986328126	0		3.365202392578125	-0.16867481994628905	0		4.65820361328125	-0.10823729705810547	0		5.95058203125	0.3962549743652344	0		-0.013823904037475587	5.9814853515625	0		
-0.018231191635131837	0.0035709381103515626	0		0.5292814331054687	-2.5455400390625	0		-0.976964111328125	0.23833930969238282	0		-0.5922164306640625	-3.060515380859375	0		1.8411507568359375	-1.0991982421875	0		3.33340283203125	-0.18549699401855468	0		4.6755263671875	-0.11673040771484375	0		5.9510087890625	0.39603717041015624	0		-0.01452308177947998	5.98213232421875	0		
-0.012941396713256836	-0.0018559709787368775	0		0.5007110900878906	-2.545467041015625	0		-0.9766082153320312	0.23795906066894532	0		-0.5079712829589844	-3.075086669921875	0		1.8372406005859374	-1.1204473876953125	0		3.340496826171875	-0.2048658447265625	0		4.68457568359375	-0.1390934295654297	0		5.9513603515625	0.3958331298828125	0		-0.047410083770751954	5.97524951171875	0		
-0.01265522003173828	-0.002197535991668701	0		0.5031047058105469	-2.542824462890625	0		-0.9663291625976562	0.23745008850097657	0		-0.56938623046875	-3.059556640625	0		1.8493682861328125	-1.133911865234375	0		3.3944541015625	-0.22889100646972657	0		4.684865234375	-0.1393153076171875	0		5.9598642578125	0.4115276184082031	0		-0.030149362564086915	5.9836630859375	0		
-0.009385967254638672	0.0014344979524612428	0		0.5105089721679688	-2.53423681640625	0		-0.9611945190429687	0.23203045654296875	0		-0.5368859252929687	-3.045353271484375	0		1.8973336181640625	-1.1538721923828126	0		3.38751611328125	-0.2400288848876953	0		4.7008798828125	-0.15374830627441408	0		5.95595263671875	0.403411376953125	0		-0.03205914688110351	5.9853662109375	0		
-0.013184625625610352	0.005185811996459961	0		0.505616455078125	-2.541457275390625	0		-0.971927001953125	0.24085739135742187	0		-0.58250537109375	-3.034017822265625	0		1.884265380859375	-1.170943603515625	0		3.392138916015625	-0.2773175964355469	0		4.72171240234375	-0.1762338409423828	0		5.95197314453125	0.3953113098144531	0		-0.014121770858764648	5.9808046875	0		
0.0438212890625	-9.071249961853027E-4	0		0.5037318115234375	-2.54369970703125	0		-0.9009138793945313	0.23554249572753908	0		-0.5453680419921875	-3.035840576171875	0		1.8939488525390624	-1.2013206787109374	0		3.412956298828125	-0.29681619262695313	0		4.71361572265625	-0.1892891540527344	0		5.95204638671875	0.39517037963867185	0		-0.04727791595458984	5.97399072265625	0		
-0.017115703582763674	0.0016998720169067382	0		0.4939325866699219	-2.535806396484375	0		-0.9709404907226562	0.23225631713867187	0		-0.5771680297851562	-3.028658935546875	0		1.904563720703125	-1.23268994140625	0		3.43470556640625	-0.31730804443359373	0		4.73051904296875	-0.19868161010742189	0		5.94306689453125	0.3951740417480469	0		-0.04738522720336914	5.97373046875	0		
0.04382793045043945	-0.0013984090089797974	0		0.5058784790039063	-2.54219921875	0		-0.9609824829101562	0.23086016845703125	0		-0.5720409545898437	-3.0229765625	0		1.9143262939453125	-1.2500233154296876	0		3.436506103515625	-0.33049591064453127	0		4.74815966796875	-0.22306747436523439	0		5.94714990234375	0.40300912475585937	0		-0.0323798828125	5.98428173828125	0		
-0.035221290588378903	5.129039883613587E-4	0		0.48195849609375	-2.5350576171875	0		-0.9610582885742187	0.23063421630859374	0		-0.577854248046875	-3.009111328125	0		1.9299383544921875	-1.274416748046875	0		3.45702880859375	-0.3599297790527344	0		4.75980859375	-0.2433491973876953	0		5.95195654296875	0.3948487548828125	0		-0.047722702026367185	5.97328759765625	0		
0.03970576858520508	0.003273292064666748	0		0.4958944396972656	-2.53442578125	0		-0.9611843872070313	0.230438232421875	0		-0.5877802734375	-2.99916015625	0		1.949356689453125	-1.3088404541015626	0		3.48465625	-0.37844085693359375	0		4.7814345703125	-0.26175225830078125	0		5.95182763671875	0.3947760009765625	0		-0.047951137542724606	5.97310791015625	0		
-0.044503082275390626	0.001310359001159668	0		0.466777099609375	-2.533158203125	0		-0.9713477783203125	0.23141448974609374	0		-0.5858792114257813	-2.997347412109375	0		1.97988916015625	-1.33139404296875	0		3.4581513671875	-0.402165283203125	0		4.801951171875	-0.28411953735351564	0		5.9465341796875	0.38679299926757815	0		-0.01512584400177002	5.9794912109375	0		
0.040188022613525394	-0.005007335186004639	0		0.5303790893554687	-2.548171630859375	0		-0.9656520385742188	0.22619761657714843	0		-0.5840389404296875	-2.995503173828125	0		1.9693687744140624	-1.3533421630859375	0		3.479628662109375	-0.4235437927246094	0		4.80659765625	-0.2932406005859375	0		5.942412109375	0.394813232421875	0		-0.04754958724975586	5.97182373046875	0		
-0.04501988983154297	0.0011021610498428344	0		0.47926904296875	-2.53753564453125	0		-0.9559567260742188	0.2249571990966797	0		-0.5771915283203125	-2.988697509765625	0		2.02755712890625	-1.3922335205078125	0		3.517174072265625	-0.4361236572265625	0		4.82907275390625	-0.31059259033203124	0		5.95111962890625	0.39467056274414064	0		-0.016601980209350584	5.99329638671875	0		
0.0466540412902832	0.0017506940364837647	0		0.5099744873046875	-2.536023193359375	0		-0.9571773071289063	0.23390512084960938	0		-0.61926318359375	-2.97116943359375	0		2.0361688232421873	-1.396395263671875	0		3.512763427734375	-0.4410872802734375	0		4.831533203125	-0.3246406860351562	0		5.9507705078125	0.394674560546875	0		-0.03316045379638672	5.982466796875	0		
-0.041727729797363285	0.003966749906539917	0		0.47170587158203126	-2.5275078125	0		-0.962639404296875	0.2299461212158203	0		-0.5857044067382813	-2.975674560546875	0		2.0404228515625	-1.4214697265625	0		3.5277978515625	-0.4813036193847656	0		4.85590380859375	-0.340975830078125	0		5.9452509765625	0.38676934814453123	0		-0.0497503662109375	5.97267041015625	0		
0.037798992156982424	0.0028530220985412596	0		0.4921250305175781	-2.5367880859375	0		-0.9671618041992187	0.22600941467285157	0		-0.5970406494140625	-2.967511962890625	0		2.0435706787109376	-1.4495008544921875	0		3.5340390625	-0.5023699951171875	0		4.85722900390625	-0.355965576171875	0		5.940896484375	0.39486740112304686	0		-0.05024678039550781	5.972681640625	0		
-0.04183322143554687	-0.003989504098892212	0		0.4646486511230469	-2.53336181640625	0		-0.9736190185546875	0.23113658142089843	0		-0.5846605224609375	-2.97464990234375	0		2.069819091796875	-1.4658282470703126	0		3.564326904296875	-0.5157501831054687	0		4.878447265625	-0.37421542358398435	0		5.94036767578125	0.3949278259277344	0		-0.03465007781982422	5.98250146484375	0		
0.032624984741210936	-9.650890231132507E-4	0		0.5029266357421875	-2.542830078125	0		-0.9682804565429688	0.22613255310058594	0		-0.6531049194335937	-2.963614990234375	0		2.0799736328125	-1.4839024658203126	0		3.569623046875	-0.523755615234375	0		4.8778564453125	-0.3741378173828125	0		5.9317783203125	0.39511752319335935	0		-0.0352384147644043	5.9825810546875	0		
-0.043965042114257814	0.004216565132141113	0		0.47836508178710935	-2.535381591796875	0		-0.9648776245117188	0.23019232177734375	0		-0.5886626586914062	-2.956414794921875	0		2.100101806640625	-1.4990902099609376	0		3.61362548828125	-0.54828515625	0		4.9109306640625	-0.3935175170898437	0		5.9481240234375	0.39497152709960937	0		-0.051025230407714846	5.97190625	0		
0.03619849014282227	-0.0047753858566284176	0		0.49950384521484376	-2.544546630859375	0		-0.985575927734375	0.23162677001953125	0		-0.6623342895507812	-2.951237060546875	0		2.11022021484375	-1.5101107177734374	0		3.618792724609375	-0.5562454833984375	0		4.90612841796875	-0.39934573364257814	0		5.942298828125	0.3871507873535156	0		-0.051702266693115236	5.97205322265625	0		
-0.04545658874511719	0.0045445671081542965	0		0.4888170776367188	-2.53623095703125	0		-0.9863494262695313	0.23181680297851562	0		-0.5912302856445313	-2.9580634765625	0		2.1481865234375	-1.527498291015625	0		3.619828369140625	-0.5691270141601562	0		4.93807763671875	-0.41867578125	0		5.93741455078125	0.37933065795898435	0		-0.053405803680419923	5.97324853515625	0		
0.02964749526977539	-3.1172001361846923E-4	0		0.49579644775390624	-2.547135009765625	0		-0.992234375	0.22811434936523436	0		-0.6640087890625	-2.950827880859375	0		2.1601220703125	-1.542493896484375	0		3.624875732421875	-0.5770435791015625	0		4.947197265625	-0.42166619873046873	0		5.9327001953125	0.3875235900878906	0		-0.053174976348876954	5.97244921875	0		
-0.04222881698608399	9.368020296096802E-4	0		0.5057865905761719	-2.553050537109375	0		-0.9771862182617187	0.22315205383300782	0		-0.614043212890625	-2.9582890625	0		2.14013134765625	-1.5480125732421874	0		3.652824951171875	-0.5882625122070313	0		4.95527783203125	-0.4236249694824219	0		5.9449208984375	0.39449169921875	0		-0.020698022842407227	5.9912294921875	0		
0.04391903305053711	0.005987345218658447	0		0.47406735229492186	-2.53434423828125	0		-0.9730542602539063	0.22737916564941407	0		-0.6567831420898438	-2.940406005859375	0		2.1810283203125	-1.558365966796875	0		3.6459990234375	-0.5799681396484375	0		4.965326171875	-0.4245946044921875	0		5.93501513671875	0.3957856750488281	0		-0.0537921028137207	5.97196337890625	0		
-0.022068916320800783	0.005217362880706787	0		0.5218710327148437	-2.54673583984375	0		-0.9240630493164063	0.22400404357910156	0		-0.5899619140625	-2.9510419921875	0		2.18197119140625	-1.5621304931640625	0		3.643765625	-0.5977208862304687	0		4.977123046875	-0.4405744323730469	0		5.9299443359375	0.3880245056152344	0		-0.05462805938720703	5.97227587890625	0		
